<svg xmlns="http://www.w3.org/2000/svg" width="53.654" height="36" viewBox="0 0 53.654 36">
  <path id="adidas-logo" d="M26.685,31.307a2.6,2.6,0,1,1,2.6,2.6,2.588,2.588,0,0,1-2.6-2.6m10.56,0a2.6,2.6,0,1,1,2.6,2.6,2.588,2.588,0,0,1-2.6-2.6m-24.48,0a2.6,2.6,0,1,1,2.6,2.6,2.587,2.587,0,0,1-2.6-2.6m-10.56,0a2.6,2.6,0,1,1,2.6,2.6,2.587,2.587,0,0,1-2.6-2.6M23.556,26.72H21.3V35.8h2.258ZM7.378,35.8H9.636V26.72H7.378v.729a4.693,4.693,0,1,0,0,7.715Zm35.04,0h2.258V26.72H42.418v.729a4.693,4.693,0,1,0,0,7.715Zm3.094-2.951c.071,1.831,1.635,3.129,4.249,3.129,2.133,0,3.893-.924,3.893-2.969,0-1.422-.8-2.258-2.649-2.613l-1.44-.284C48.64,29.938,48,29.76,48,29.209c0-.6.622-.871,1.4-.871,1.138,0,1.6.569,1.635,1.244h2.276c-.125-1.778-1.547-2.969-3.84-2.969-2.365,0-3.769,1.3-3.769,2.986,0,2.062,1.671,2.4,3.111,2.667l1.191.214c.853.16,1.226.409,1.226.907,0,.444-.427.889-1.44.889-1.475,0-1.956-.764-1.973-1.422ZM17.938,23.627v3.822a4.693,4.693,0,1,0,0,7.715v.64H20.2V23.627Zm13.92,0v3.822a4.693,4.693,0,1,0,0,7.715v.64h2.258V23.627ZM5.866,20.943,7.4,23.627H17.938L13.76,16.409Zm17.689,4.942V23.627h8.3L23,8.3l-7.911,4.533,6.2,10.791v2.258Zm11.663-2.258h10.56L32.125,0,24.232,4.551Z" fill="#ebebeb"/>
</svg>
