<svg xmlns="http://www.w3.org/2000/svg" width="46" height="46" viewBox="0 0 46 46">
  <g id="Group_36" data-name="Group 36" transform="translate(-652 -3048)">
    <rect id="Rectangle_60" data-name="Rectangle 60" width="46" height="46" transform="translate(652 3048)" fill="rgba(255,255,255,0)"/>
    <g id="Layer_2" data-name="Layer 2" transform="translate(691.1 3042.006)">
      <g id="Layer_1" data-name="Layer 1" transform="translate(-28.1 10.994)">
        <path id="Path_18" data-name="Path 18" d="M.135,32.274A2.434,2.434,0,0,0,.144,33.6a.616.616,0,0,0,.107.2,3.017,3.017,0,0,0,1.635,1.414,4.344,4.344,0,0,0,1.5.32c.429-.008.858,0,1.286,0,.253,0,.506-.025.758-.051a.188.188,0,0,0,.141-.1A.234.234,0,0,0,5.5,35.2a1.083,1.083,0,0,1-.352-.673.844.844,0,0,0-.383-.589A7.991,7.991,0,0,1,3.1,32.2a10.491,10.491,0,0,1-.774-1.483A4.963,4.963,0,0,1,1.9,28.756a7.426,7.426,0,0,1,.184-1.521,4.64,4.64,0,0,1,.432-1.179,1.463,1.463,0,0,1,.534-.557A2.867,2.867,0,0,1,6.5,25.413a3.956,3.956,0,0,1,1.272,1.844,7.346,7.346,0,0,1,.488,1.81,4.88,4.88,0,0,0,.127.589.322.322,0,0,0,.429.191,2.724,2.724,0,0,0,.467-.374c.31-.312.623-.624.9-.966.394-.483.761-.994,1.137-1.495a.3.3,0,0,0-.037-.415c-.135-.16-.243-.347-.376-.509-.243-.3-.089-.566.06-.808a.918.918,0,0,0-.1-1.212.483.483,0,0,0-.428-.032,2.353,2.353,0,0,1-.945.1,1.245,1.245,0,0,1-.976-.823A7.1,7.1,0,0,1,8.3,21.9a17.288,17.288,0,0,1,.091-2.386,17.4,17.4,0,0,1,.464-2.058c.07-.281.07-.468-.211-.6a2.413,2.413,0,0,1-.638-.509,9.12,9.12,0,0,1-.813-.9,4.358,4.358,0,0,1-.927-1.721,10.837,10.837,0,0,0-.305-1.043c-.021-.066-.091-.154-.141-.158s-.133.065-.177.123a3.219,3.219,0,0,1-1.177.961,2.694,2.694,0,0,1-1.253.316,3.239,3.239,0,0,1-1.848-.709A3.221,3.221,0,0,1,.221,11.483,3.5,3.5,0,0,1,.308,9.213a2.966,2.966,0,0,1,.816-1.271,2.856,2.856,0,0,1,1.787-.8A3.708,3.708,0,0,1,4.1,7.2,2.913,2.913,0,0,1,5.882,8.712c.081.156.145.323.229.477a.22.22,0,0,0,.141.113A.216.216,0,0,0,6.392,9.2c.341-.528.663-1.071,1.02-1.585A3.912,3.912,0,0,1,7.949,7.1a1.725,1.725,0,0,0,.159-.2.9.9,0,0,0-.225-.193C7.6,6.593,7.3,6.52,7.03,6.39A3.046,3.046,0,0,1,5.783,5.182a4.71,4.71,0,0,1-.492-1.747A1.181,1.181,0,0,1,5.326,3a4.652,4.652,0,0,1,.488-1.488A2.915,2.915,0,0,1,7.614.126a3.019,3.019,0,0,1,1.793.01,3.065,3.065,0,0,1,1.787,1.6A3.235,3.235,0,0,1,11.459,4.3a9.121,9.121,0,0,1-.473,1.013c-.026.056-.07.1-.092.158-.048.12-.049.211.112.219.217.008.433.033.65.044a5.232,5.232,0,0,1,3.5,1.54,5.516,5.516,0,0,1,1.519,2.588c.052.2.091.407.132.611s.127.312.324.3h.022c.69.011.68.006,1.018-.645a2.018,2.018,0,0,1,.441-.572c.391-.342.815-.075,1.011.344a1.722,1.722,0,0,1-.051,1.485,2.52,2.52,0,0,1-.263.507.886.886,0,0,0-.156.541,3.553,3.553,0,0,1-.474,1.583,4.182,4.182,0,0,1-2,1.782.352.352,0,0,0-.163.194c-.011.031.089.116.148.16.231.173.463.346.7.507a6.16,6.16,0,0,0,.563.343A4.184,4.184,0,0,1,19.24,18.09a5.551,5.551,0,0,1,.934,1.6,3.781,3.781,0,0,1,.3,1.331c-.008.422,0,.839,0,1.259,0,.245.179.315.341.4a1.6,1.6,0,0,1,.347.175.36.36,0,0,1,.1.275A3.943,3.943,0,0,1,20.383,25a10.358,10.358,0,0,1-1,1.022,10.1,10.1,0,0,1-.823.671c-.2.152-.15.362-.126.553A5.076,5.076,0,0,1,18.3,29.4a2.76,2.76,0,0,0-.122.469.32.32,0,0,0,.088.249,2.208,2.208,0,0,0,.512.3.339.339,0,0,0,.292-.056,4.811,4.811,0,0,1,2.373-1.115,3.16,3.16,0,0,1,1.78.181,2.414,2.414,0,0,1,1.13,1.025,2.858,2.858,0,0,1,.386,1.627,2.212,2.212,0,0,1-.464,1.131,5.542,5.542,0,0,1-2.614,1.908c-.361.134-.723.271-1.093.369a6.659,6.659,0,0,1-1.026.185,10.005,10.005,0,0,1-1.493.09c-.647-.03-1.292-.123-1.935-.217a3.718,3.718,0,0,1-1.92-.852,2.018,2.018,0,0,1-.789-1.747,2.277,2.277,0,0,1,1.108-1.824.646.646,0,0,0,.315-.37,1.134,1.134,0,0,1,.95-.808.68.68,0,0,0,.642-.52,6.737,6.737,0,0,0,.429-1.869c0-.2-.028-.308-.246-.306a.281.281,0,0,1-.281-.319c0-.129-.011-.239-.168-.237s-.272.077-.259.243c.025.326-.146.444-.394.515a1.312,1.312,0,0,0-.386.147.8.8,0,0,0-.3.343,7.809,7.809,0,0,1-1.039,1.91c-.257.365-.474.765-.753,1.107a11.74,11.74,0,0,1-1.036,1.088c-.478.452-.977.878-1.471,1.31a3.5,3.5,0,0,1-.444.335.973.973,0,0,0-.422.68.909.909,0,0,1-.55.673.69.69,0,0,0-.365.352,1.1,1.1,0,0,1-.915.573,3,3,0,0,1-1.707-.281,1.85,1.85,0,0,0-.722.006c-.613.013-1.227.058-1.839.027a7.24,7.24,0,0,1-1.364-.226,3.234,3.234,0,0,1-1.38-.778,2.68,2.68,0,0,1-.75-1.022A1.765,1.765,0,0,1,0,32.378a.778.778,0,0,1,.075-.125Zm10.221.556c.061,0,.11.01.141-.01a3.95,3.95,0,0,0,.885-.566,8.252,8.252,0,0,0,.79-1.134c.367-.552.74-1.1,1.087-1.666.239-.39.441-.807.652-1.217.07-.135.052-.258-.1-.318-.368-.141-.526-.047-.746.292-.53.82-1.073,1.63-1.638,2.422a11.024,11.024,0,0,1-.761.832,1.04,1.04,0,0,0-.294.447A6.111,6.111,0,0,0,10.357,32.83ZM9.9,21.514c.053.187.1.376.163.555.016.044.1.07.158.08.02,0,.07-.075.07-.118.02-.362.032-.724.049-1.086a.408.408,0,0,1,.017-.141c.176-.409.358-.814.531-1.224.034-.08.075-.2.044-.258a3.537,3.537,0,0,0-.374-.571.18.18,0,0,0-.326.083c-.07.379-.126.764-.182,1.147-.015.1,0,.2-.013.3C9.994,20.693,9.947,21.1,9.9,21.514Z" transform="translate(0.1 0.006)" fill="#7d7d7d"/>
      </g>
    </g>
  </g>
</svg>
