<svg xmlns="http://www.w3.org/2000/svg" width="36" height="36" viewBox="0 0 36 36">
  <g id="Group_30" data-name="Group 30" transform="translate(-1343 -2454)">
    <rect id="Rectangle_54" data-name="Rectangle 54" width="36" height="36" transform="translate(1343 2454)" fill="rgba(255,255,255,0)"/>
    <path id="Icon_awesome-briefcase" data-name="Icon awesome-briefcase" d="M20,21.25a1,1,0,0,1-1,1H13a1,1,0,0,1-1-1v-3H0v9a3.076,3.076,0,0,0,3,3H29a3.076,3.076,0,0,0,3-3v-9H20Zm9-13H24v-3a3.076,3.076,0,0,0-3-3H11a3.076,3.076,0,0,0-3,3v3H3a3.076,3.076,0,0,0-3,3v5H32v-5A3.076,3.076,0,0,0,29,8.25Zm-9,0H12v-2h8Z" transform="translate(1345 2455.75)" fill="#fb1b50"/>
  </g>
</svg>
