<svg xmlns="http://www.w3.org/2000/svg" width="26" height="26" viewBox="0 0 26 26">
  <g id="Group_5" data-name="Group 5" transform="translate(-1439 -4613)">
    <circle id="Ellipse_8" data-name="Ellipse 8" cx="13" cy="13" r="13" transform="translate(1439 4613)" fill="rgba(29,29,29,0.05)"/>
    <path id="Icon_simple-instagram" data-name="Icon simple-instagram" d="M7.944,0C5.786,0,5.517.01,4.669.048A5.858,5.858,0,0,0,2.741.417a3.89,3.89,0,0,0-1.407.916A3.876,3.876,0,0,0,.417,2.741,5.841,5.841,0,0,0,.048,4.669C.008,5.517,0,5.786,0,7.944s.01,2.428.048,3.275a5.862,5.862,0,0,0,.369,1.929,3.9,3.9,0,0,0,.916,1.407,3.885,3.885,0,0,0,1.407.916,5.865,5.865,0,0,0,1.929.369c.847.04,1.117.048,3.275.048s2.428-.01,3.275-.048a5.879,5.879,0,0,0,1.929-.369,4.06,4.06,0,0,0,2.324-2.324,5.861,5.861,0,0,0,.369-1.929c.04-.847.048-1.117.048-3.275s-.01-2.428-.048-3.275a5.875,5.875,0,0,0-.369-1.929,3.9,3.9,0,0,0-.916-1.407A3.871,3.871,0,0,0,13.148.417,5.845,5.845,0,0,0,11.22.048C10.372.008,10.1,0,7.944,0Zm0,1.43c2.121,0,2.373.011,3.211.047a4.377,4.377,0,0,1,1.474.275,2.614,2.614,0,0,1,1.508,1.507,4.386,4.386,0,0,1,.273,1.474c.038.838.046,1.09.046,3.211s-.01,2.373-.049,3.211a4.471,4.471,0,0,1-.279,1.474,2.523,2.523,0,0,1-.6.915,2.479,2.479,0,0,1-.914.593,4.419,4.419,0,0,1-1.48.273c-.843.038-1.092.046-3.217.046s-2.374-.01-3.217-.049a4.5,4.5,0,0,1-1.48-.279,2.46,2.46,0,0,1-.913-.6,2.412,2.412,0,0,1-.6-.914,4.509,4.509,0,0,1-.278-1.48c-.03-.834-.04-1.092-.04-3.207s.011-2.374.04-3.218a4.5,4.5,0,0,1,.278-1.479,2.355,2.355,0,0,1,.6-.914,2.35,2.35,0,0,1,.913-.595A4.4,4.4,0,0,1,4.7,1.45c.844-.03,1.092-.04,3.217-.04Zm0,2.435a4.079,4.079,0,1,0,4.079,4.079A4.079,4.079,0,0,0,7.944,3.865Zm0,6.728a2.648,2.648,0,1,1,2.648-2.648A2.647,2.647,0,0,1,7.944,10.593ZM13.139,3.7a.953.953,0,1,1-.953-.953A.954.954,0,0,1,13.139,3.7Z" transform="translate(1444.055 4618.057)" fill="#f9f9f9"/>
  </g>
</svg>
