<svg xmlns="http://www.w3.org/2000/svg" width="26" height="26" viewBox="0 0 26 26">
  <g id="Group_7" data-name="Group 7" transform="translate(-1555 -4613)">
    <circle id="Ellipse_10" data-name="Ellipse 10" cx="13" cy="13" r="13" transform="translate(1555 4613)" fill="rgba(29,29,29,0.05)"/>
    <path id="Icon_zocial-linkedin" data-name="Icon zocial-linkedin" d="M-.18,1.726A1.414,1.414,0,0,1,.28.643,1.686,1.686,0,0,1,1.475.216a1.636,1.636,0,0,1,1.169.42A1.481,1.481,0,0,1,3.1,1.765a1.383,1.383,0,0,1-.446,1.051,1.689,1.689,0,0,1-1.208.433H1.435A1.607,1.607,0,0,1,.266,2.816,1.455,1.455,0,0,1-.18,1.726Zm.171,11.49V4.444H2.906v8.772H-.009Zm4.53,0H7.436v-4.9a1.89,1.89,0,0,1,.105-.709A1.9,1.9,0,0,1,8.1,6.854a1.427,1.427,0,0,1,.939-.309q1.471,0,1.471,1.983v4.688h2.915V8.187A4.226,4.226,0,0,0,12.5,5.239a3.136,3.136,0,0,0-2.429-1A2.98,2.98,0,0,0,7.436,5.692v.026H7.423l.013-.026V4.444H4.521q.026.42.026,2.613t-.026,6.159Z" transform="translate(1561.68 4619.284)" fill="#f9f9f9"/>
  </g>
</svg>
