<svg xmlns="http://www.w3.org/2000/svg" width="46" height="46" viewBox="0 0 46 46">
  <g id="Group_38" data-name="Group 38" transform="translate(-1337 -3048)">
    <rect id="Rectangle_62" data-name="Rectangle 62" width="46" height="46" transform="translate(1337 3048)" fill="rgba(255,255,255,0)"/>
    <path id="Icon_metro-music" data-name="Icon metro-music" d="M36.321,1.928h2.25V27.8c0,3.107-3.526,5.625-7.875,5.625S22.821,30.91,22.821,27.8s3.526-5.625,7.875-5.625a9.619,9.619,0,0,1,5.625,1.689V10.928l-18,4V32.3c0,3.107-3.526,5.625-7.875,5.625S2.571,35.41,2.571,32.3s3.526-5.625,7.875-5.625a9.619,9.619,0,0,1,5.625,1.689V6.428l20.25-4.5Z" transform="translate(1339.649 3051.072)" fill="#7d7d7d"/>
  </g>
</svg>
