<svg xmlns="http://www.w3.org/2000/svg" width="36" height="36" viewBox="0 0 36 36">
  <g id="Group_27" data-name="Group 27" transform="translate(-297 -2465)">
    <rect id="Rectangle_51" data-name="Rectangle 51" width="36" height="36" transform="translate(297 2465)" fill="none"/>
    <path id="Icon_metro-magic-wand" data-name="Icon metro-magic-wand" d="M10.571,7.928l-4-4h-2v2l4,4Zm2-6h2v4h-2Zm8,10h4v2h-4Zm2-6v-2h-2l-4,4,2,2Zm-20,6h4v2h-4Zm10,8h2v4h-2Zm-8,0v2h2l4-4-2-2Zm29.562,9.562L14.255,9.612a1.5,1.5,0,0,0-2.121,0l-1.879,1.879a1.5,1.5,0,0,0,0,2.121L30.133,33.491a1.5,1.5,0,0,0,2.121,0l1.879-1.879A1.5,1.5,0,0,0,34.133,29.491ZM17.571,18.928l-6-6,2-2,6,6Z" transform="translate(296.429 2465.072)" fill="#fc0"/>
  </g>
</svg>
