<svg xmlns="http://www.w3.org/2000/svg" width="36" height="36" viewBox="0 0 36 36">
  <g id="Layer_2" data-name="Layer 2" transform="translate(0.01)">
    <g id="Layer_1" data-name="Layer 1" transform="translate(-0.01)">
      <path id="Path_23" data-name="Path 23" d="M17.99,0a18,18,0,1,0,18,18A18,18,0,0,0,17.99,0ZM3.269,9.539A17.037,17.037,0,0,1,17.793,1.024L15.465,16.447,3.175,26.388A16.968,16.968,0,0,1,3.269,9.539ZM18.058,35.066a16.974,16.974,0,0,1-14.676-8.3l14.612-6.048L32.67,26.672a17,17,0,0,1-14.612,8.394Zm2.39-18.414L18.221,1.024A17.039,17.039,0,0,1,32.889,26.279Z" transform="translate(0.01)" fill="#ebebeb" fill-rule="evenodd"/>
    </g>
  </g>
</svg>
