<svg xmlns="http://www.w3.org/2000/svg" width="100.031" height="36" viewBox="0 0 100.031 36">
  <g id="Layer_2" data-name="Layer 2" transform="translate(0.017 0.002)">
    <g id="Layer_1" data-name="Layer 1" transform="translate(-0.017 -0.002)">
      <path id="Path_24" data-name="Path 24" d="M12.806,1.593C6.3,9.221.06,18.719-.006,25.8A8.4,8.4,0,0,0,2.86,32.558,13.951,13.951,0,0,0,12.259,36c4.7,0,9.38-1.89,13.042-3.359C31.459,30.173,99.593.585,99.593.585c.659-.323.534-.738-.29-.534l-74.167,20.1a16.23,16.23,0,0,1-4.3.613c-5.671.033-10.723-3.116-10.684-9.755a21.754,21.754,0,0,1,2.635-9.412Z" transform="translate(0.017 0.002)" fill="#ebebeb" fill-rule="evenodd"/>
    </g>
  </g>
</svg>
