<svg xmlns="http://www.w3.org/2000/svg" width="47" height="47.116" viewBox="0 0 47 47.116">
  <path id="Icon_simple-pinterest" data-name="Icon simple-pinterest" d="M23.578,0A23.532,23.532,0,0,0,15,45.445a22.623,22.623,0,0,1,.08-6.751C15.509,36.854,17.84,27,17.84,27a8.515,8.515,0,0,1-.7-3.5c0-3.265,1.9-5.715,4.256-5.715,2.01,0,2.98,1.51,2.98,3.314,0,2.02-1.282,5.039-1.947,7.837a3.414,3.414,0,0,0,3.485,4.25c4.178,0,7.4-4.407,7.4-10.772,0-5.617-4.05-9.559-9.831-9.559A10.184,10.184,0,0,0,12.855,23.065,9.164,9.164,0,0,0,14.6,28.446a.718.718,0,0,1,.167.677c-.177.736-.575,2.354-.656,2.676-.1.442-.338.532-.787.324C10.389,30.769,8.548,26.473,8.548,23c0-7.413,5.395-14.237,15.548-14.237,8.163,0,14.512,5.825,14.512,13.591,0,8.118-5.118,14.649-12.236,14.649-2.383,0-4.621-1.235-5.414-2.707l-1.47,5.591a25.637,25.637,0,0,1-2.941,6.176A23.534,23.534,0,1,0,23.515.051Z" transform="translate(-0.043)" fill="#ebebeb"/>
</svg>
