<svg xmlns="http://www.w3.org/2000/svg" width="46" height="46" viewBox="0 0 46 46">
  <g id="Group_34" data-name="Group 34" transform="translate(-1342 -2932)">
    <rect id="Rectangle_58" data-name="Rectangle 58" width="46" height="46" transform="translate(1342 2932)" fill="rgba(255,255,255,0)"/>
    <path id="Icon_awesome-chart-bar" data-name="Icon awesome-chart-bar" d="M28.6,26.5h3.3A1.183,1.183,0,0,0,33,25.4V13.85a1.183,1.183,0,0,0-1.1-1.1H28.6a1.183,1.183,0,0,0-1.1,1.1V25.4A1.183,1.183,0,0,0,28.6,26.5Zm8.25,0h3.3a1.183,1.183,0,0,0,1.1-1.1V5.6a1.183,1.183,0,0,0-1.1-1.1h-3.3a1.183,1.183,0,0,0-1.1,1.1V25.4A1.183,1.183,0,0,0,36.85,26.5Zm-24.75,0h3.3a1.183,1.183,0,0,0,1.1-1.1V19.35a1.183,1.183,0,0,0-1.1-1.1H12.1a1.183,1.183,0,0,0-1.1,1.1V25.4A1.183,1.183,0,0,0,12.1,26.5Zm8.25,0h3.3a1.183,1.183,0,0,0,1.1-1.1V8.35a1.183,1.183,0,0,0-1.1-1.1h-3.3a1.183,1.183,0,0,0-1.1,1.1V25.4A1.183,1.183,0,0,0,20.35,26.5ZM42.625,32H5.5V5.875A1.375,1.375,0,0,0,4.125,4.5H1.375A1.375,1.375,0,0,0,0,5.875V34.75A2.75,2.75,0,0,0,2.75,37.5H42.625A1.375,1.375,0,0,0,44,36.125v-2.75A1.375,1.375,0,0,0,42.625,32Z" transform="translate(1343 2934.5)" fill="#7d7d7d"/>
  </g>
</svg>
