<svg xmlns="http://www.w3.org/2000/svg" width="36" height="36" viewBox="0 0 36 36">
  <g id="Group_29" data-name="Group 29" transform="translate(-994 -2460)">
    <rect id="Rectangle_53" data-name="Rectangle 53" width="36" height="36" transform="translate(994 2460)" fill="rgba(255,255,255,0)"/>
    <g id="Icon_ionic-md-help-circle-outline" data-name="Icon ionic-md-help-circle-outline" transform="translate(992.625 2458.625)">
      <path id="Path_13" data-name="Path 13" d="M19.375,6.606a12.764,12.764,0,1,1-9.031,3.738,12.716,12.716,0,0,1,9.031-3.738m0-3.231a16,16,0,1,0,16,16,16,16,0,0,0-16-16Z" transform="translate(0 0)" fill="#2d9fd1"/>
      <g id="Group_26" data-name="Group 26" transform="translate(12.975 9.76)">
        <path id="Path_14" data-name="Path 14" d="M16.523,23.836h3.231v3.231H16.523Z" transform="translate(-11.739 -7.836)" fill="#2d9fd1"/>
        <path id="Path_15" data-name="Path 15" d="M20.15,23.6h-3.2c0-5.154,4.8-4.785,4.8-7.985a3.214,3.214,0,0,0-3.2-3.208,3.246,3.246,0,0,0-3.2,3.192h-3.2a6.4,6.4,0,0,1,12.8.008C24.95,19.6,20.15,20.057,20.15,23.6Z" transform="translate(-12.15 -9.211)" fill="#2d9fd1"/>
      </g>
    </g>
  </g>
</svg>
