<svg xmlns="http://www.w3.org/2000/svg" width="46" height="46" viewBox="0 0 46 46">
  <g id="Group_37" data-name="Group 37" transform="translate(-1004 -3044)">
    <rect id="Rectangle_61" data-name="Rectangle 61" width="46" height="46" transform="translate(1004 3044)" fill="rgba(255,255,255,0)"/>
    <g id="Layer_2" data-name="Layer 2" transform="translate(1009.003 3048.99)">
      <g id="Layer_1" data-name="Layer 1" transform="translate(-0.003 0.01)">
        <path id="Path_19" data-name="Path 19" d="M18.264,36.01A17.973,17.973,0,0,0,33.925,9.884a1.339,1.339,0,0,0-1.589-.9c-.859.2-1.128,1.095-.639,2.091a15.843,15.843,0,0,1,1.642,7.208,15.418,15.418,0,0,1-30.6,2.372,15.42,15.42,0,0,1,22.1-16.438c.929.453,1.589.323,1.967-.381.4-.743.108-1.389-.843-1.885C15.476-3.5,2.273,3.087.273,14.775A17.894,17.894,0,0,0,15.182,35.722C16.2,35.89,17.237,35.917,18.264,36.01Z" transform="translate(0.003 -0.01)" fill="#7d7d7d"/>
        <path id="Path_20" data-name="Path 20" d="M41.339,51.331a10.481,10.481,0,0,1-10.684-9.515A10.373,10.373,0,0,1,39.31,30.886a10.746,10.746,0,0,1,4.852.372c.993.3,1.693.027,1.931-.752.217-.706-.217-1.323-1.162-1.642A12.815,12.815,0,1,0,53.1,37.019c-.374-1.082-1.215-1.5-1.985-.962a1.386,1.386,0,0,0-.449,1.772,10.321,10.321,0,0,1-9.325,13.5Z" transform="translate(-23.019 -23.048)" fill="#7d7d7d"/>
        <path id="Path_21" data-name="Path 21" d="M56.08,64.316a7.69,7.69,0,0,0,15.318.911c.106-.942-.263-1.533-1.018-1.63-.808-.1-1.277.281-1.46,1.23-.547,2.578-1.938,4.055-4.261,4.493a5.105,5.105,0,0,1-5.883-3.8,5.175,5.175,0,0,1,3.65-6.243c.292-.078.593-.124.891-.182a1.243,1.243,0,1,0-.354-2.456,7.633,7.633,0,0,0-6.589,5.715C56.219,62.988,56.173,63.658,56.08,64.316Z" transform="translate(-45.846 -46.293)" fill="#7d7d7d"/>
        <path id="Path_22" data-name="Path 22" d="M108.748,3.749c-.274,0-.547-.009-.821,0-.651.027-.954-.274-.938-.929A15.979,15.979,0,0,0,106.973,1a.923.923,0,0,0-.4-.626.711.711,0,0,0-.63.182c-.892.87-1.8,1.732-2.6,2.682a2.781,2.781,0,0,0-.547,1.5,4.015,4.015,0,0,1-1.224,2.651q-4.657,4.631-9.3,9.279c-.215.215-.438.422-.641.648a1.337,1.337,0,0,0-.073,1.883,1.289,1.289,0,0,0,1.865-.113c1.794-1.776,3.573-3.564,5.358-5.349,1.527-1.527,3.06-3.049,4.577-4.584a4.169,4.169,0,0,1,2.661-1.219,3.48,3.48,0,0,0,1.708-.73,24.806,24.806,0,0,0,2.347-2.283c.182-.182.383-.626.3-.752a1.438,1.438,0,0,0-.81-.4,3.487,3.487,0,0,0-.818-.015Z" transform="translate(-74.567 -0.284)" fill="#7d7d7d"/>
      </g>
    </g>
  </g>
</svg>
