<svg xmlns="http://www.w3.org/2000/svg" width="26" height="26" viewBox="0 0 26 26">
  <g id="Group_8" data-name="Group 8" transform="translate(-1391 -4613)">
    <path id="Path_25" data-name="Path 25" d="M13,0A13,13,0,1,1,0,13,13,13,0,0,1,13,0Z" transform="translate(1391 4613)" fill="rgba(29,29,29,0.05)"/>
    <g id="Group_4" data-name="Group 4" transform="translate(1395.333 4617.334)">
      <rect id="Rectangle_36" data-name="Rectangle 36" width="17.333" height="17.333" fill="rgba(255,255,255,0)"/>
      <path id="Icon_awesome-twitter" data-name="Icon awesome-twitter" d="M14.256,6.6c.01.141.01.282.01.423A9.2,9.2,0,0,1,5,16.285a9.2,9.2,0,0,1-5-1.462,6.737,6.737,0,0,0,.786.04,6.522,6.522,0,0,0,4.043-1.391,3.262,3.262,0,0,1-3.045-2.258,4.107,4.107,0,0,0,.615.05,3.444,3.444,0,0,0,.857-.111,3.257,3.257,0,0,1-2.611-3.2v-.04a3.28,3.28,0,0,0,1.472.413A3.261,3.261,0,0,1,1.109,3.976,9.256,9.256,0,0,0,7.823,7.383a3.676,3.676,0,0,1-.081-.746,3.26,3.26,0,0,1,5.636-2.228,6.411,6.411,0,0,0,2.067-.786,3.248,3.248,0,0,1-1.432,1.795,6.528,6.528,0,0,0,1.875-.5A7,7,0,0,1,14.256,6.6Z" transform="translate(0.722 -1.214)" fill="#f9f9f9"/>
    </g>
  </g>
</svg>
