<svg xmlns="http://www.w3.org/2000/svg" width="61.87" height="36" viewBox="0 0 61.87 36">
  <path id="Icon_zocial-yahoo" data-name="Icon zocial-yahoo" d="M-6.75,4.9l.27.855a4.551,4.551,0,0,0,.337.45.938.938,0,0,0,.247.225l.09.09.855.45H.044L12.958,22.453a1.661,1.661,0,0,1,.495,1.126v8.639a1.037,1.037,0,0,1-.112.54.487.487,0,0,1-.247.225h-.135q-5.041,0-6.39.135-.449,0-.45.4V36H29.337V33.435a.279.279,0,0,0-.112-.225.338.338,0,0,0-.2-.09H22.453q-.4,0-.4-.674V23.357a.379.379,0,0,1,.067-.316,1.829,1.829,0,0,1,.247-.315l.135-.136q.5-.494,11.879-11.2h5.985a1.321,1.321,0,0,0,.81-.315l.765-.855a1.2,1.2,0,0,0,.27-.81V8.774a.406.406,0,0,0-.135-.2.274.274,0,0,0-.136-.067H22.228l-.315.27a1.072,1.072,0,0,0,.067.562,1.221,1.221,0,0,0,.247.427l.09.18,1.035,1.035.81.315h5.175l-9.314,8.774L9.764,6.974h1.845a1.742,1.742,0,0,0,.99-.18l3.06-.945a.359.359,0,0,0,.135-.045A.626.626,0,0,0,16,5.58a.741.741,0,0,0,.112-.4v-.63a.3.3,0,0,0-.09-.225.255.255,0,0,0-.18-.09H-6.3a.482.482,0,0,0-.45.315ZM46.8,0,55.12.315,51.385,25.828l-2.743-.135Zm.585,34.332.18-4.951,4.951.181-.181,4.95Z" transform="translate(6.75)" fill="#ebebeb"/>
</svg>
